<svg xmlns="http://www.w3.org/2000/svg" viewBox="0 0 32 32" width="32" height="32">
  <defs>
    <linearGradient id="bg" x1="0%" y1="0%" x2="100%" y2="100%">
      <stop offset="0%" stop-color="#b8261f"/>
      <stop offset="100%" stop-color="#6d0000"/>
    </linearGradient>
  </defs>
  <rect width="32" height="32" rx="7" fill="url(#bg)"/>
  <g transform="translate(6,6)" stroke="#e8d2b0" stroke-width="1.7" stroke-linecap="round" stroke-linejoin="round" fill="none">
    <path d="M10 5.3v11.7"/>
    <path d="M2.2 15.4a0.8 0.8 0 0 1-0.8-0.8V3.4a0.8 0.8 0 0 1 0.8-0.8h4.3a3.4 3.4 0 0 1 3.5 3.4 3.4 3.4 0 0 1 3.5-3.4h4.3a0.8 0.8 0 0 1 0.8 0.8v11.2a0.8 0.8 0 0 1-0.8 0.8h-5.1a2.6 2.6 0 0 0-2.7 2.6 2.6 2.6 0 0 0-2.7-2.6z"/>
  </g>
</svg>
